<?xml version="1.0" standalone="no"?>
<!DOCTYPE svg PUBLIC "-//W3C//DTD SVG 1.1//EN" "http://www.w3.org/Graphics/SVG/1.1/DTD/svg11.dtd">
<svg xmlns="http://www.w3.org/2000/svg" xmlns:xlink="http://www.w3.org/1999/xlink" width="375" zoomAndPan="magnify" viewBox="0 0 375 374.999991" height="375" preserveAspectRatio="xMidYMid meet" version="1.0"><defs><clipPath id="ce8b078fa3"><path d="M 196 109 L 230.601562 109 L 230.601562 200.429688 L 196 200.429688 Z M 196 109 " clip-rule="nonzero"/></clipPath><clipPath id="44aaae5a81"><path d="M 144.351562 108.929688 L 179 108.929688 L 179 200 L 144.351562 200 Z M 144.351562 108.929688 " clip-rule="nonzero"/></clipPath></defs><g clip-path="url(#ce8b078fa3)"><path fill="#000000" d="M 213.296875 119.503906 L 213.296875 180.480469 L 196.164062 190.449219 L 213.40625 200.476562 L 230.636719 190.457031 L 230.636719 109.417969 Z M 213.296875 119.503906 " fill-opacity="1" fill-rule="nonzero"/></g><path fill="#000000" d="M 178.824219 169.777344 L 178.824219 180.359375 L 196.164062 190.449219 L 196.164062 159.695312 Z M 178.824219 169.777344 " fill-opacity="1" fill-rule="nonzero"/><g clip-path="url(#44aaae5a81)"><path fill="#000000" d="M 161.582031 108.941406 L 144.351562 118.960938 L 144.351562 200 L 161.691406 189.914062 L 161.691406 128.9375 L 178.824219 118.96875 Z M 161.582031 108.941406 " fill-opacity="1" fill-rule="nonzero"/></g><path fill="#000000" d="M 196.164062 139.636719 L 196.164062 129.058594 L 178.824219 118.96875 L 178.824219 149.722656 Z M 196.164062 139.636719 " fill-opacity="1" fill-rule="nonzero"/></svg>