<svg xmlns="http://www.w3.org/2000/svg" xmlns:xlink="http://www.w3.org/1999/xlink" width="500" zoomAndPan="magnify" viewBox="0 0 375 374.999991" height="500" preserveAspectRatio="xMidYMid meet" version="1.0"><defs><g/><clipPath id="491c9ec8d7"><path d="M 196 109 L 230.601562 109 L 230.601562 200.429688 L 196 200.429688 Z M 196 109 " clip-rule="nonzero"/></clipPath><clipPath id="c536b4429d"><path d="M 144.351562 108.929688 L 179 108.929688 L 179 200 L 144.351562 200 Z M 144.351562 108.929688 " clip-rule="nonzero"/></clipPath></defs><g clip-path="url(#491c9ec8d7)"><path fill="#000000" d="M 213.296875 119.503906 L 213.296875 180.480469 L 196.164062 190.449219 L 213.40625 200.476562 L 230.636719 190.457031 L 230.636719 109.417969 Z M 213.296875 119.503906 " fill-opacity="1" fill-rule="nonzero"/></g><path fill="#000000" d="M 178.824219 169.777344 L 178.824219 180.359375 L 196.164062 190.449219 L 196.164062 159.695312 Z M 178.824219 169.777344 " fill-opacity="1" fill-rule="nonzero"/><g clip-path="url(#c536b4429d)"><path fill="#000000" d="M 161.582031 108.941406 L 144.351562 118.960938 L 144.351562 200 L 161.691406 189.914062 L 161.691406 128.9375 L 178.824219 118.96875 Z M 161.582031 108.941406 " fill-opacity="1" fill-rule="nonzero"/></g><path fill="#000000" d="M 196.164062 139.636719 L 196.164062 129.058594 L 178.824219 118.96875 L 178.824219 149.722656 Z M 196.164062 139.636719 " fill-opacity="1" fill-rule="nonzero"/><g fill="#000000" fill-opacity="1"><g transform="translate(106.337803, 239.870418)"><g><path d="M 23.484375 -24.84375 L 23.484375 0 L 18.6875 0 L 18.6875 -10.609375 L 7.421875 -10.609375 L 7.421875 0 L 2.59375 0 L 2.59375 -24.84375 L 7.421875 -24.84375 L 7.421875 -14.8125 L 18.6875 -14.8125 L 18.6875 -24.84375 Z M 23.484375 -24.84375 "/></g></g></g><g fill="#000000" fill-opacity="1"><g transform="translate(135.906865, 239.870418)"><g><path d="M 9.34375 -24.84375 L 14.25 -24.84375 L 23.375 0 L 18.40625 0 L 16.09375 -6.1875 L 7.421875 -6.1875 L 5.140625 0 L 0.171875 0 Z M 15.21875 -9.59375 L 11.796875 -19.84375 L 8.21875 -9.59375 Z M 15.21875 -9.59375 "/></g></g></g><g fill="#000000" fill-opacity="1"><g transform="translate(162.921503, 239.870418)"><g><path d="M 2.59375 0 L 2.59375 -24.84375 L 13.578125 -24.84375 C 14.722656 -24.84375 15.78125 -24.609375 16.75 -24.140625 C 17.71875 -23.679688 18.554688 -23.050781 19.265625 -22.25 C 19.972656 -21.457031 20.519531 -20.570312 20.90625 -19.59375 C 21.289062 -18.613281 21.484375 -17.613281 21.484375 -16.59375 C 21.484375 -15.539062 21.300781 -14.53125 20.9375 -13.5625 C 20.582031 -12.59375 20.066406 -11.742188 19.390625 -11.015625 C 18.710938 -10.296875 17.921875 -9.738281 17.015625 -9.34375 L 22.6875 0 L 17.359375 0 L 12.25 -8.328125 L 7.421875 -8.328125 L 7.421875 0 Z M 7.421875 -12.5625 L 13.46875 -12.5625 C 14.082031 -12.5625 14.617188 -12.742188 15.078125 -13.109375 C 15.546875 -13.472656 15.921875 -13.957031 16.203125 -14.5625 C 16.484375 -15.164062 16.625 -15.84375 16.625 -16.59375 C 16.625 -17.382812 16.457031 -18.078125 16.125 -18.671875 C 15.800781 -19.265625 15.390625 -19.734375 14.890625 -20.078125 C 14.390625 -20.429688 13.847656 -20.609375 13.265625 -20.609375 L 7.421875 -20.609375 Z M 7.421875 -12.5625 "/></g></g></g><g fill="#000000" fill-opacity="1"><g transform="translate(189.691194, 239.870418)"><g><path d="M 13.1875 0.171875 C 11.375 0.171875 9.722656 -0.175781 8.234375 -0.875 C 6.753906 -1.570312 5.484375 -2.519531 4.421875 -3.71875 C 3.359375 -4.925781 2.535156 -6.28125 1.953125 -7.78125 C 1.367188 -9.289062 1.078125 -10.835938 1.078125 -12.421875 C 1.078125 -14.078125 1.382812 -15.65625 2 -17.15625 C 2.625 -18.664062 3.476562 -20.007812 4.5625 -21.1875 C 5.644531 -22.363281 6.925781 -23.296875 8.40625 -23.984375 C 9.894531 -24.679688 11.523438 -25.03125 13.296875 -25.03125 C 15.097656 -25.03125 16.738281 -24.664062 18.21875 -23.9375 C 19.695312 -23.21875 20.960938 -22.25 22.015625 -21.03125 C 23.066406 -19.820312 23.882812 -18.46875 24.46875 -16.96875 C 25.050781 -15.476562 25.34375 -13.941406 25.34375 -12.359375 C 25.34375 -10.722656 25.035156 -9.148438 24.421875 -7.640625 C 23.816406 -6.140625 22.972656 -4.800781 21.890625 -3.625 C 20.804688 -2.445312 19.519531 -1.519531 18.03125 -0.84375 C 16.550781 -0.164062 14.9375 0.171875 13.1875 0.171875 Z M 5.984375 -12.421875 C 5.984375 -11.347656 6.144531 -10.3125 6.46875 -9.3125 C 6.800781 -8.3125 7.273438 -7.414062 7.890625 -6.625 C 8.503906 -5.84375 9.257812 -5.222656 10.15625 -4.765625 C 11.0625 -4.316406 12.085938 -4.09375 13.234375 -4.09375 C 14.398438 -4.09375 15.4375 -4.332031 16.34375 -4.8125 C 17.25 -5.289062 18.003906 -5.929688 18.609375 -6.734375 C 19.222656 -7.535156 19.6875 -8.429688 20 -9.421875 C 20.3125 -10.421875 20.46875 -11.421875 20.46875 -12.421875 C 20.46875 -13.492188 20.296875 -14.523438 19.953125 -15.515625 C 19.617188 -16.515625 19.144531 -17.40625 18.53125 -18.1875 C 17.914062 -18.96875 17.15625 -19.582031 16.25 -20.03125 C 15.351562 -20.488281 14.347656 -20.71875 13.234375 -20.71875 C 12.035156 -20.71875 10.988281 -20.476562 10.09375 -20 C 9.195312 -19.519531 8.445312 -18.882812 7.84375 -18.09375 C 7.238281 -17.300781 6.773438 -16.414062 6.453125 -15.4375 C 6.140625 -14.457031 5.984375 -13.453125 5.984375 -12.421875 Z M 5.984375 -12.421875 "/></g></g></g><g fill="#000000" fill-opacity="1"><g transform="translate(219.645164, 239.870418)"><g><path d="M 2.59375 0 L 2.59375 -24.84375 L 7.421875 -24.84375 L 7.421875 -4.234375 L 20.09375 -4.234375 L 20.09375 0 Z M 2.59375 0 "/></g></g></g><g fill="#000000" fill-opacity="1"><g transform="translate(243.580492, 239.870418)"><g><path d="M 2.59375 0 L 2.59375 -24.84375 L 11.625 -24.84375 C 14.332031 -24.84375 16.59375 -24.289062 18.40625 -23.1875 C 20.226562 -22.082031 21.59375 -20.585938 22.5 -18.703125 C 23.414062 -16.828125 23.875 -14.742188 23.875 -12.453125 C 23.875 -9.941406 23.367188 -7.75 22.359375 -5.875 C 21.359375 -4.007812 19.941406 -2.5625 18.109375 -1.53125 C 16.273438 -0.507812 14.113281 0 11.625 0 Z M 19 -12.453125 C 19 -14.066406 18.707031 -15.484375 18.125 -16.703125 C 17.539062 -17.929688 16.703125 -18.890625 15.609375 -19.578125 C 14.515625 -20.265625 13.1875 -20.609375 11.625 -20.609375 L 7.421875 -20.609375 L 7.421875 -4.234375 L 11.625 -4.234375 C 13.207031 -4.234375 14.546875 -4.585938 15.640625 -5.296875 C 16.742188 -6.015625 17.578125 -6.992188 18.140625 -8.234375 C 18.710938 -9.484375 19 -10.890625 19 -12.453125 Z M 19 -12.453125 "/></g></g></g><g fill="#000000" fill-opacity="1"><g transform="translate(169.548765, 262.420413)"><g><path d="M 1.1875 0 L 1.1875 -11.359375 L 5.3125 -11.359375 C 6.550781 -11.359375 7.582031 -11.101562 8.40625 -10.59375 C 9.238281 -10.09375 9.863281 -9.410156 10.28125 -8.546875 C 10.695312 -7.691406 10.90625 -6.742188 10.90625 -5.703125 C 10.90625 -4.546875 10.675781 -3.539062 10.21875 -2.6875 C 9.757812 -1.832031 9.113281 -1.171875 8.28125 -0.703125 C 7.445312 -0.234375 6.457031 0 5.3125 0 Z M 8.6875 -5.703125 C 8.6875 -6.429688 8.550781 -7.078125 8.28125 -7.640625 C 8.019531 -8.203125 7.640625 -8.640625 7.140625 -8.953125 C 6.640625 -9.265625 6.03125 -9.421875 5.3125 -9.421875 L 3.390625 -9.421875 L 3.390625 -1.9375 L 5.3125 -1.9375 C 6.039062 -1.9375 6.65625 -2.097656 7.15625 -2.421875 C 7.65625 -2.742188 8.035156 -3.191406 8.296875 -3.765625 C 8.554688 -4.335938 8.6875 -4.984375 8.6875 -5.703125 Z M 8.6875 -5.703125 "/></g></g></g><g fill="#000000" fill-opacity="1"><g transform="translate(183.002007, 262.420413)"><g><path d="M 9.078125 -1.9375 L 9.078125 0 L 1.1875 0 L 1.1875 -11.359375 L 8.921875 -11.359375 L 8.921875 -9.421875 L 3.390625 -9.421875 L 3.390625 -6.6875 L 8.171875 -6.6875 L 8.171875 -4.890625 L 3.390625 -4.890625 L 3.390625 -1.9375 Z M 9.078125 -1.9375 "/></g></g></g><g fill="#000000" fill-opacity="1"><g transform="translate(194.615693, 262.420413)"><g><path d="M 2.359375 -11.359375 L 5.421875 -2.625 L 8.46875 -11.359375 L 10.78125 -11.359375 L 6.484375 0 L 4.359375 0 L 0.03125 -11.359375 Z M 2.359375 -11.359375 "/></g></g></g></svg>